<?xml version="1.0" encoding="UTF-8"?>
<svg version="1.1" xmlns="http://www.w3.org/2000/svg" width="500" height="500">
<path d="M0 0 C5.61 0 11.22 0 17 0 C19.8042375 5.92895929 22.34563627 11.80363954 24.5 18 C27.1469504 25.59850116 30.37792557 32.82200775 34 40 C34.37511719 38.90042969 34.75023437 37.80085938 35.13671875 36.66796875 C37.73871995 29.12113885 40.4126201 21.72990793 43.8359375 14.5078125 C45.43664585 11.05930659 46.82088181 7.53667569 48.203125 3.99609375 C49 2 49 2 50 0 C60.56 0 71.12 0 82 0 C82.33 10.56 82.66 21.12 83 32 C83.99 30.515 83.99 30.515 85 29 C85.66 29 86.32 29 87 29 C87.20625 28.34 87.4125 27.68 87.625 27 C89.22302477 23.51340051 91.30629215 20.77948461 93.66015625 17.76953125 C95.05953287 16.03375555 95.05953287 16.03375555 96 14 C96.66 14 97.32 14 98 14 C98.41958984 12.91138672 98.41958984 12.91138672 98.84765625 11.80078125 C100.86311995 6.90217965 102.46618777 3.01395472 107 0 C113.24699789 -1.15457907 119.71068932 -0.50892524 126 0 C124.46387819 3.09872847 122.92152816 6.11770776 121 9 C120.34 9 119.68 9 119 9 C118.690625 9.78375 118.38125 10.5675 118.0625 11.375 C117 14 117 14 116 16 C115.34 16 114.68 16 114 16 C113.71125 16.763125 113.4225 17.52625 113.125 18.3125 C112 21 112 21 110 24 C109.34 24 108.68 24 108 24 C106.10869496 28.25543634 105.34800026 31.20700072 107 35.75 C107.495 36.86375 107.495 36.86375 108 38 C108.66 38 109.32 38 110 38 C114 43.41176471 114 43.41176471 114 46 C114.66 46 115.32 46 116 46 C119 50.38461538 119 50.38461538 119 53 C119.66 53 120.32 53 121 53 C122.2890625 54.75 122.2890625 54.75 123.625 57 C124.07101562 57.7425 124.51703125 58.485 124.9765625 59.25 C125.48316406 60.11625 125.48316406 60.11625 126 61 C125 62 125 62 123.23413086 62.11352539 C122.48526611 62.10828857 121.73640137 62.10305176 120.96484375 62.09765625 C120.15595703 62.09443359 119.34707031 62.09121094 118.51367188 62.08789062 C117.66353516 62.07951172 116.81339844 62.07113281 115.9375 62.0625 C115.08349609 62.05798828 114.22949219 62.05347656 113.34960938 62.04882812 C111.23304337 62.03700373 109.11651315 62.01906769 107 62 C106.67 61.01 106.34 60.02 106 59 C105.34 59 104.68 59 104 59 C102.4921875 57.1015625 102.4921875 57.1015625 100.875 54.625 C100.33617187 53.81289063 99.79734375 53.00078125 99.2421875 52.1640625 C98 50 98 50 98 48 C97.34 48 96.68 48 96 48 C94.375 46.5 94.375 46.5 93 45 C92.74605469 45.69480469 92.49210937 46.38960938 92.23046875 47.10546875 C90.83182523 50.39561114 89.24337766 53.30033085 87.3125 56.3125 C86.66925781 57.38113281 86.02601563 58.44976562 85.36328125 59.55078125 C82 62 82 62 67 62 C66.505 33.29 66.505 33.29 66 4 C64.02 9.28 62.04 14.56 60 20 C57.5 25.5 57.5 25.5 56.27734375 28.109375 C54.4406712 32.26575937 52.88444136 36.51955247 51.31396484 40.78125 C48.68282209 47.91101757 45.85366576 54.95691005 43 62 C40.06097651 62.13481759 37.12810441 62.23399416 34.1875 62.3125 C33.35412109 62.35439453 32.52074219 62.39628906 31.66210938 62.43945312 C29.34782325 62.48592473 27.26971183 62.45808586 25 62 C23.07421875 59.86328125 23.07421875 59.86328125 22 57 C21.60039062 56.02804687 21.20078125 55.05609375 20.7890625 54.0546875 C20.40492188 53.00539063 20.02078125 51.95609375 19.625 50.875 C18.07840392 46.74766598 16.45507926 42.72989336 14.5625 38.75 C12.06065839 33.38554964 10.1563728 27.87753187 8.24169922 22.28515625 C6.45608279 17.12850893 4.39206886 12.19812054 1.98046875 7.296875 C1 5 1 5 0 0 Z " fill="#4DCEF0" transform="translate(187,219)"/>
<path d="M0 0 C5.61 0 11.22 0 17 0 C19.8042375 5.92895929 22.34563627 11.80363954 24.5 18 C27.1469504 25.59850116 30.37792557 32.82200775 34 40 C34.37511719 38.90042969 34.75023437 37.80085938 35.13671875 36.66796875 C37.7383015 29.12235252 40.4035408 21.72685003 43.83984375 14.51171875 C45.44270407 11.04155315 46.7774067 7.48137936 48.10546875 3.8984375 C49 2 49 2 51 1 C53.55157655 0.9283265 56.07472971 0.90691558 58.625 0.9375 C59.68460938 0.94426758 59.68460938 0.94426758 60.765625 0.95117188 C62.51045275 0.96296125 64.255237 0.98089676 66 1 C64.81646976 9.60632316 61.21560172 17.48611379 57.5625 25.3125 C55.21186387 30.37371343 53.24230795 35.54854397 51.31420898 40.78051758 C48.68305729 47.91055611 45.85376203 54.95667244 43 62 C40.06097651 62.13481759 37.12810441 62.23399416 34.1875 62.3125 C33.35412109 62.35439453 32.52074219 62.39628906 31.66210938 62.43945312 C29.34782325 62.48592473 27.26971183 62.45808586 25 62 C23.07421875 59.86328125 23.07421875 59.86328125 22 57 C21.60039062 56.02804687 21.20078125 55.05609375 20.7890625 54.0546875 C20.40492188 53.00539063 20.02078125 51.95609375 19.625 50.875 C18.07840392 46.74766598 16.45507926 42.72989336 14.5625 38.75 C12.06065839 33.38554964 10.1563728 27.87753187 8.24169922 22.28515625 C6.45608279 17.12850893 4.39206886 12.19812054 1.98046875 7.296875 C1 5 1 5 0 0 Z " fill="#EBECEB" transform="translate(187,219)"/>
<path d="M0 0 C9.19059668 -0.17460546 16.50109071 0.88336688 24.76171875 5.08203125 C24.76171875 5.74203125 24.76171875 6.40203125 24.76171875 7.08203125 C25.32375 7.16582031 25.88578125 7.24960938 26.46484375 7.3359375 C29.4665507 8.31098177 31.17728193 9.91014634 33.51171875 12.01953125 C34.71054687 13.08494141 34.71054687 13.08494141 35.93359375 14.171875 C37.76171875 16.08203125 37.76171875 16.08203125 37.76171875 18.08203125 C38.42171875 18.08203125 39.08171875 18.08203125 39.76171875 18.08203125 C44.48245589 24.2128587 48.77272438 30.93443602 51.76171875 38.08203125 C51.43171875 39.07203125 51.10171875 40.06203125 50.76171875 41.08203125 C46.76171875 35.33203125 46.76171875 35.33203125 46.76171875 33.08203125 C46.10171875 33.08203125 45.44171875 33.08203125 44.76171875 33.08203125 C41.76171875 28.69741587 41.76171875 28.69741587 41.76171875 26.08203125 C41.10171875 26.08203125 40.44171875 26.08203125 39.76171875 26.08203125 C38.4089376 24.09513394 37.0760357 22.09457907 35.76171875 20.08203125 C35.10171875 19.75203125 34.44171875 19.42203125 33.76171875 19.08203125 C33.76171875 18.42203125 33.76171875 17.76203125 33.76171875 17.08203125 C33.10171875 17.08203125 32.44171875 17.08203125 31.76171875 17.08203125 C31.76171875 16.42203125 31.76171875 15.76203125 31.76171875 15.08203125 C30.77171875 14.74171875 30.77171875 14.74171875 29.76171875 14.39453125 C27.21743987 13.28140924 25.23821995 12.11254685 22.94921875 10.58203125 C13.85836767 4.86440877 3.37963672 4.99169648 -6.984375 6.69921875 C-17.78755463 9.23982083 -26.39260953 14.06879297 -35.515625 20.33203125 C-38.23828125 22.08203125 -38.23828125 22.08203125 -40.23828125 22.08203125 C-40.23828125 22.74203125 -40.23828125 23.40203125 -40.23828125 24.08203125 C-42.3203125 25.9921875 -42.3203125 25.9921875 -45.05078125 28.14453125 C-45.94410156 28.85738281 -46.83742188 29.57023437 -47.7578125 30.3046875 C-50.23828125 32.08203125 -50.23828125 32.08203125 -53.23828125 33.08203125 C-53.23828125 33.74203125 -53.23828125 34.40203125 -53.23828125 35.08203125 C-53.89828125 35.08203125 -54.55828125 35.08203125 -55.23828125 35.08203125 C-55.23828125 35.74203125 -55.23828125 36.40203125 -55.23828125 37.08203125 C-55.89828125 37.08203125 -56.55828125 37.08203125 -57.23828125 37.08203125 C-57.23828125 37.74203125 -57.23828125 38.40203125 -57.23828125 39.08203125 C-58.953125 40.73828125 -58.953125 40.73828125 -61.17578125 42.58203125 C-64.15873304 44.97130124 -64.15873304 44.97130124 -66.23828125 48.08203125 C-66.89828125 48.08203125 -67.55828125 48.08203125 -68.23828125 48.08203125 C-68.23828125 48.74203125 -68.23828125 49.40203125 -68.23828125 50.08203125 C-68.89828125 50.08203125 -69.55828125 50.08203125 -70.23828125 50.08203125 C-70.23828125 50.74203125 -70.23828125 51.40203125 -70.23828125 52.08203125 C-70.89828125 52.08203125 -71.55828125 52.08203125 -72.23828125 52.08203125 C-72.50640625 52.65953125 -72.77453125 53.23703125 -73.05078125 53.83203125 C-74.26757314 56.13753168 -75.54162004 58.10259317 -77.23828125 60.08203125 C-77.89828125 60.08203125 -78.55828125 60.08203125 -79.23828125 60.08203125 C-79.52703125 60.68015625 -79.81578125 61.27828125 -80.11328125 61.89453125 C-81.23828125 64.08203125 -81.23828125 64.08203125 -83.23828125 67.08203125 C-83.89828125 67.08203125 -84.55828125 67.08203125 -85.23828125 67.08203125 C-85.46515625 67.59765625 -85.69203125 68.11328125 -85.92578125 68.64453125 C-87.72045743 71.9775013 -89.7379314 75.22906796 -92.23828125 78.08203125 C-92.89828125 78.08203125 -93.55828125 78.08203125 -94.23828125 78.08203125 C-94.52703125 78.84515625 -94.81578125 79.60828125 -95.11328125 80.39453125 C-96.23828125 83.08203125 -96.23828125 83.08203125 -98.23828125 86.08203125 C-98.89828125 86.08203125 -99.55828125 86.08203125 -100.23828125 86.08203125 C-100.48578125 86.78714844 -100.73328125 87.49226563 -100.98828125 88.21875 C-102.39931784 91.45090568 -104.16335385 94.04532027 -106.23828125 96.89453125 C-106.93953125 97.87035156 -107.64078125 98.84617187 -108.36328125 99.8515625 C-108.98203125 100.58761719 -109.60078125 101.32367188 -110.23828125 102.08203125 C-110.89828125 102.08203125 -111.55828125 102.08203125 -112.23828125 102.08203125 C-110.8253603 97.25455135 -108.80853971 93.36579535 -106.23828125 89.08203125 C-105.57828125 89.08203125 -104.91828125 89.08203125 -104.23828125 89.08203125 C-103.57828125 87.10203125 -102.91828125 85.12203125 -102.23828125 83.08203125 C-101.57828125 83.08203125 -100.91828125 83.08203125 -100.23828125 83.08203125 C-99.92890625 82.29828125 -99.61953125 81.51453125 -99.30078125 80.70703125 C-98.23828125 78.08203125 -98.23828125 78.08203125 -97.23828125 76.08203125 C-96.57828125 76.08203125 -95.91828125 76.08203125 -95.23828125 76.08203125 C-94.57828125 74.10203125 -93.91828125 72.12203125 -93.23828125 70.08203125 C-92.57828125 70.08203125 -91.91828125 70.08203125 -91.23828125 70.08203125 C-90.97144531 69.50582031 -90.70460937 68.92960937 -90.4296875 68.3359375 C-88.24631841 64.2054327 -85.15165954 60.7168175 -82.23828125 57.08203125 C-81.53058594 56.18613281 -80.82289063 55.29023438 -80.09375 54.3671875 C-75.67995767 48.85574454 -71.08285073 43.75051549 -65.98828125 38.859375 C-64.16272171 37.18829913 -64.16272171 37.18829913 -63.23828125 35.08203125 C-62.57828125 35.08203125 -61.91828125 35.08203125 -61.23828125 35.08203125 C-61.23828125 34.42203125 -61.23828125 33.76203125 -61.23828125 33.08203125 C-60.57828125 33.08203125 -59.91828125 33.08203125 -59.23828125 33.08203125 C-59.23828125 32.42203125 -59.23828125 31.76203125 -59.23828125 31.08203125 C-58.57828125 31.08203125 -57.91828125 31.08203125 -57.23828125 31.08203125 C-57.23828125 30.42203125 -57.23828125 29.76203125 -57.23828125 29.08203125 C-55.58828125 28.42203125 -53.93828125 27.76203125 -52.23828125 27.08203125 C-52.23828125 26.42203125 -52.23828125 25.76203125 -52.23828125 25.08203125 C-51.57828125 25.08203125 -50.91828125 25.08203125 -50.23828125 25.08203125 C-50.23828125 24.42203125 -50.23828125 23.76203125 -50.23828125 23.08203125 C-47.97265625 21.171875 -47.97265625 21.171875 -44.98828125 19.01953125 C-44.01375 18.30667969 -43.03921875 17.59382813 -42.03515625 16.859375 C-39.62515338 15.32787876 -38.01699182 14.51206979 -35.23828125 14.08203125 C-35.23828125 13.42203125 -35.23828125 12.76203125 -35.23828125 12.08203125 C-12.72546968 0.46637847 -12.72546968 0.46637847 0 0 Z " fill="#C6C8C7" transform="translate(253.23828125,145.91796875)"/>
<path d="M0 0 C0.99 0.495 0.99 0.495 2 1 C-1.83267698 8.76476057 -5.68691463 16.48688356 -10 24 C-10.66 24 -11.32 24 -12 24 C-12.11174561 24.57508301 -12.22349121 25.15016602 -12.33862305 25.74267578 C-13.07416258 28.2531219 -14.11419703 29.95614671 -15.58203125 32.1171875 C-16.10216797 32.88933594 -16.62230469 33.66148437 -17.15820312 34.45703125 C-17.70412109 35.25496094 -18.25003906 36.05289063 -18.8125 36.875 C-19.34681641 37.66519531 -19.88113281 38.45539063 -20.43164062 39.26953125 C-21.4733615 40.80968929 -22.51897248 42.34722482 -23.56884766 43.88183594 C-24.8362433 45.75763338 -26.05068612 47.65803752 -27.26171875 49.5703125 C-27.83535156 50.37210937 -28.40898437 51.17390625 -29 52 C-29.66 52 -30.32 52 -31 52 C-31.268125 52.7425 -31.53625 53.485 -31.8125 54.25 C-32.95276751 56.89061949 -34.09380306 58.85552844 -36 61 C-36.66 61 -37.32 61 -38 61 C-38.2475 61.721875 -38.495 62.44375 -38.75 63.1875 C-40.12269592 66.27606582 -41.72353296 68.51011418 -44 71 C-44.66 71 -45.32 71 -46 71 C-46 71.66 -46 72.32 -46 73 C-48.375 75.625 -48.375 75.625 -51 78 C-51.66 78 -52.32 78 -53 78 C-53 78.66 -53 79.32 -53 80 C-53.66 80 -54.32 80 -55 80 C-55 80.66 -55 81.32 -55 82 C-55.66 82 -56.32 82 -57 82 C-57 82.66 -57 83.32 -57 84 C-58.8984375 85.7265625 -58.8984375 85.7265625 -61.375 87.625 C-62.18710937 88.25664062 -62.99921875 88.88828125 -63.8359375 89.5390625 C-66 91 -66 91 -68 91 C-68 91.66 -68 92.32 -68 93 C-68.66 93 -69.32 93 -70 93 C-70 93.66 -70 94.32 -70 95 C-76.90120594 99.9365383 -84.53364762 103.20778361 -92.48046875 106.0546875 C-94.90353967 106.76565692 -94.90353967 106.76565692 -96 108 C-111.05449378 110.46346262 -122.61315875 108.31445965 -136 101 C-136 100.34 -136 99.68 -136 99 C-137.11375 98.62875 -137.11375 98.62875 -138.25 98.25 C-141.23023087 96.89534961 -142.89919252 95.4898459 -145 93 C-145 92.34 -145 91.68 -145 91 C-145.66 91 -146.32 91 -147 91 C-147 90.34 -147 89.68 -147 89 C-147.66 89 -148.32 89 -149 89 C-153 83.70588235 -153 83.70588235 -153 80 C-153.66 80 -154.32 80 -155 80 C-157.04169485 77.09451118 -158 75.59857954 -158 72 C-157.34 72 -156.68 72 -156 72 C-154.4921875 73.8984375 -154.4921875 73.8984375 -152.875 76.375 C-152.33617187 77.18710937 -151.79734375 77.99921875 -151.2421875 78.8359375 C-150 81 -150 81 -150 83 C-149.01 83.33 -148.02 83.66 -147 84 C-145.64172029 85.64639965 -144.30745749 87.31295807 -143 89 C-142.34 89.33 -141.68 89.66 -141 90 C-141 90.66 -141 91.32 -141 92 C-140.34 92 -139.68 92 -139 92 C-139 92.66 -139 93.32 -139 94 C-138.34 94.226875 -137.68 94.45375 -137 94.6875 C-134.45572112 95.80062201 -132.4765012 96.9694844 -130.1875 98.5 C-121.05269467 104.23462779 -109.92847767 104.37166712 -99.52734375 102.3125 C-89.46431005 99.43392063 -80.67145514 94.67955822 -72.55859375 88.1015625 C-71 87 -71 87 -69 87 C-69 86.34 -69 85.68 -69 85 C-67.61002255 83.79696095 -66.15951099 82.66364664 -64.6875 81.5625 C-54.57820667 73.87684497 -54.57820667 73.87684497 -47 64 C-46.34 64 -45.68 64 -45 64 C-44.34 62.35 -43.68 60.7 -43 59 C-42.34 59 -41.68 59 -41 59 C-41 58.34 -41 57.68 -41 57 C-40.34 57 -39.68 57 -39 57 C-38.773125 56.484375 -38.54625 55.96875 -38.3125 55.4375 C-36.51782382 52.10452995 -34.50034985 48.85296329 -32 46 C-31.34 46 -30.68 46 -30 46 C-29.71125 45.236875 -29.4225 44.47375 -29.125 43.6875 C-28 41 -28 41 -26 38 C-25.34 38 -24.68 38 -24 38 C-23.773125 37.34 -23.54625 36.68 -23.3125 36 C-21.6121185 32.11341372 -19.60376916 28.36320183 -17 25 C-16.34 25 -15.68 25 -15 25 C-14.71125 24.2575 -14.4225 23.515 -14.125 22.75 C-13.17697356 20.43260203 -12.15154089 18.22082885 -11 16 C-10.34 16 -9.68 16 -9 16 C-8.62875 14.6696875 -8.62875 14.6696875 -8.25 13.3125 C-6.94270316 9.84816338 -5.37466761 7.80642536 -3 5 C-1.9731657 3.3497306 -0.96432076 1.68756133 0 0 Z " fill="#CED1D0" transform="translate(354,245)"/>
<path d="M0 0 C3.63 0 7.26 0 11 0 C11 10.56 11 21.12 11 32 C11.66 32 12.32 32 13 32 C13 32.66 13 33.32 13 34 C15.1878136 31.86474649 17.20913689 29.6425721 19.1875 27.3125 C19.71730469 26.68988281 20.24710937 26.06726563 20.79296875 25.42578125 C21.19128906 24.95527344 21.58960938 24.48476562 22 24 C22.66 24.33 23.32 24.66 24 25 C23.525625 25.680625 23.05125 26.36125 22.5625 27.0625 C20.7774364 30.41841956 20.36846914 33.24161481 20 37 C20.66 37 21.32 37 22 37 C22.1875 40.375 22.1875 40.375 22 44 C21.01 44.66 20.02 45.32 19 46 C19 46.99 19 47.98 19 49 C18.34 49 17.68 49 17 49 C16.67 50.65 16.34 52.3 16 54 C14.68 54 13.36 54 12 54 C12 55.32 12 56.64 12 58 C8.04 58 4.08 58 0 58 C0 38.86 0 19.72 0 0 Z " fill="#4ED5FB" transform="translate(256,221)"/>
<path d="M0 0 C0.66 0.33 1.32 0.66 2 1 C-1.83267698 8.76476057 -5.68691463 16.48688356 -10 24 C-10.66 24 -11.32 24 -12 24 C-12.11174561 24.57508301 -12.22349121 25.15016602 -12.33862305 25.74267578 C-13.07416258 28.2531219 -14.11419703 29.95614671 -15.58203125 32.1171875 C-16.10216797 32.88933594 -16.62230469 33.66148437 -17.15820312 34.45703125 C-17.70412109 35.25496094 -18.25003906 36.05289063 -18.8125 36.875 C-19.34681641 37.66519531 -19.88113281 38.45539063 -20.43164062 39.26953125 C-21.4733615 40.80968929 -22.51897248 42.34722482 -23.56884766 43.88183594 C-24.8362433 45.75763338 -26.05068612 47.65803752 -27.26171875 49.5703125 C-27.83535156 50.37210937 -28.40898437 51.17390625 -29 52 C-29.66 52 -30.32 52 -31 52 C-31.268125 52.7425 -31.53625 53.485 -31.8125 54.25 C-32.95276751 56.89061949 -34.09380306 58.85552844 -36 61 C-36.66 61 -37.32 61 -38 61 C-38.2475 61.721875 -38.495 62.44375 -38.75 63.1875 C-40.12269592 66.27606582 -41.72353296 68.51011418 -44 71 C-44.66 71 -45.32 71 -46 71 C-46 71.66 -46 72.32 -46 73 C-47.62553283 74.70680947 -49.29115995 76.37660195 -51 78 C-51.99 77.67 -52.98 77.34 -54 77 C-53.67 76.401875 -53.34 75.80375 -53 75.1875 C-51.79212012 72.94613529 -51.79212012 72.94613529 -52 70 C-49.625 66.8125 -49.625 66.8125 -47 64 C-46.34 64 -45.68 64 -45 64 C-44.34 62.35 -43.68 60.7 -43 59 C-42.34 59 -41.68 59 -41 59 C-41 58.34 -41 57.68 -41 57 C-40.34 57 -39.68 57 -39 57 C-38.773125 56.484375 -38.54625 55.96875 -38.3125 55.4375 C-36.51782382 52.10452995 -34.50034985 48.85296329 -32 46 C-31.34 46 -30.68 46 -30 46 C-29.71125 45.236875 -29.4225 44.47375 -29.125 43.6875 C-28 41 -28 41 -26 38 C-25.34 38 -24.68 38 -24 38 C-23.773125 37.34 -23.54625 36.68 -23.3125 36 C-21.6121185 32.11341372 -19.60376916 28.36320183 -17 25 C-16.34 25 -15.68 25 -15 25 C-14.566875 23.88625 -14.566875 23.88625 -14.125 22.75 C-13.17697356 20.43260203 -12.15154089 18.22082885 -11 16 C-10.34 16 -9.68 16 -9 16 C-8.7525 15.113125 -8.505 14.22625 -8.25 13.3125 C-6.94270316 9.84816338 -5.37466761 7.80642536 -3 5 C-1.9731657 3.3497306 -0.96432076 1.68756133 0 0 Z " fill="#B1B4B2" transform="translate(354,245)"/>
<path d="M0 0 C0.495 0.99 0.495 0.99 1 2 C0.43410156 2.48210937 -0.13179687 2.96421875 -0.71484375 3.4609375 C-1.81505859 4.40839844 -1.81505859 4.40839844 -2.9375 5.375 C-3.66839844 6.00148437 -4.39929688 6.62796875 -5.15234375 7.2734375 C-7.08380906 8.87747714 -7.08380906 8.87747714 -8 11 C-8.66 11 -9.32 11 -10 11 C-10 11.66 -10 12.32 -10 13 C-10.66 13 -11.32 13 -12 13 C-12 13.66 -12 14.32 -12 15 C-12.66 15 -13.32 15 -14 15 C-14.268125 15.5775 -14.53625 16.155 -14.8125 16.75 C-16.02929189 19.05550043 -17.30333879 21.02056192 -19 23 C-19.66 23 -20.32 23 -21 23 C-21.433125 23.8971875 -21.433125 23.8971875 -21.875 24.8125 C-23 27 -23 27 -25 30 C-25.66 30 -26.32 30 -27 30 C-27.226875 30.515625 -27.45375 31.03125 -27.6875 31.5625 C-29.48217618 34.89547005 -31.49965015 38.14703671 -34 41 C-34.66 41 -35.32 41 -36 41 C-36.28875 41.763125 -36.5775 42.52625 -36.875 43.3125 C-38 46 -38 46 -40 49 C-40.66 49 -41.32 49 -42 49 C-42.2475 49.70511719 -42.495 50.41023438 -42.75 51.13671875 C-44.16103659 54.36887443 -45.9250726 56.96328902 -48 59.8125 C-48.70125 60.78832031 -49.4025 61.76414063 -50.125 62.76953125 C-50.74375 63.50558594 -51.3625 64.24164063 -52 65 C-52.66 65 -53.32 65 -54 65 C-52.58707905 60.1725201 -50.57025846 56.2837641 -48 52 C-47.34 52 -46.68 52 -46 52 C-45.34 50.02 -44.68 48.04 -44 46 C-43.34 46 -42.68 46 -42 46 C-41.5359375 44.824375 -41.5359375 44.824375 -41.0625 43.625 C-40 41 -40 41 -39 39 C-38.34 39 -37.68 39 -37 39 C-36.34 37.02 -35.68 35.04 -35 33 C-34.34 33 -33.68 33 -33 33 C-32.73316406 32.42378906 -32.46632812 31.84757812 -32.19140625 31.25390625 C-30.00822771 27.12376193 -26.91449752 23.63344378 -24 20 C-23.26910156 19.08089844 -22.53820312 18.16179687 -21.78515625 17.21484375 C-17.45600098 11.83485079 -13.02843824 6.73740323 -8 2 C-7.01 2.99 -6.02 3.98 -5 5 C-4.67 3.68 -4.34 2.36 -4 1 C-2.68 0.67 -1.36 0.34 0 0 Z " fill="#BABCBB" transform="translate(195,183)"/>
<path d="M0 0 C0.99 0 1.98 0 3 0 C3 0.66 3 1.32 3 2 C3.66 2 4.32 2 5 2 C5.33 1.34 5.66 0.68 6 0 C6.33 0.66 6.66 1.32 7 2 C6.67 2.66 6.34 3.32 6 4 C5.34 4 4.68 4 4 4 C4.33 5.32 4.66 6.64 5 8 C5.66 7.01 6.32 6.02 7 5 C7.66 4.67 8.32 4.34 9 4 C11.125 4.9375 11.125 4.9375 13 6 C13 6.66 13 7.32 13 8 C13.66 8 14.32 8 15 8 C15.125 13.75 15.125 13.75 14 16 C14.5775 15.7525 15.155 15.505 15.75 15.25 C16.86375 15.12625 16.86375 15.12625 18 15 C20.25 16.8125 20.25 16.8125 22 19 C22 19.66 22 20.32 22 21 C22.66 21 23.32 21 24 21 C24 21.99 24 22.98 24 24 C19.05 24 14.1 24 9 24 C8.67 22.02 8.34 20.04 8 18 C6.04836882 16.56362302 6.04836882 16.56362302 4 16 C4 15.01 4 14.02 4 13 C3.01 13 2.02 13 1 13 C0.16180842 11.37750059 -0.6704116 9.75191503 -1.5 8.125 C-1.9640625 7.22007812 -2.428125 6.31515625 -2.90625 5.3828125 C-4 3 -4 3 -4 1 C-2.68 1.33 -1.36 1.66 0 2 C0 1.34 0 0.68 0 0 Z " fill="#4ED6FB" transform="translate(285,255)"/>
<path d="M0 0 C10.56 0 21.12 0 32 0 C32 11.22 32 22.44 32 34 C31.34 34 30.68 34 30 34 C30 23.44 30 12.88 30 2 C26.37 2 22.74 2 19 2 C19 21.14 19 40.28 19 60 C22.96 60 26.92 60 31 60 C31 59.01 31 58.02 31 57 C31.66 57 32.32 57 33 57 C32.67 58.65 32.34 60.3 32 62 C27.05 62 22.1 62 17 62 C16.67 41.87 16.34 21.74 16 1 C8.08 1.495 8.08 1.495 0 2 C0 1.34 0 0.68 0 0 Z " fill="#469CB2" transform="translate(237,219)"/>
<path d="M0 0 C6.70126536 -0.48736475 11.06561592 0.92291196 17 4 C17 4.66 17 5.32 17 6 C17.84304688 6.12568359 17.84304688 6.12568359 18.703125 6.25390625 C21.70483195 7.22895052 23.41556318 8.82811509 25.75 10.9375 C26.54921875 11.64777344 27.3484375 12.35804688 28.171875 13.08984375 C30 15 30 15 30 17 C30.66 17 31.32 17 32 17 C36.72073714 23.13082745 41.01100563 29.85240477 44 37 C43.67 37.99 43.34 38.98 43 40 C39 34.25 39 34.25 39 32 C38.34 32 37.68 32 37 32 C34 27.61538462 34 27.61538462 34 25 C33.34 25 32.68 25 32 25 C30.64721885 23.01310269 29.31431695 21.01254782 28 19 C27.34 18.67 26.68 18.34 26 18 C26 17.34 26 16.68 26 16 C25.34 16 24.68 16 24 16 C24 15.34 24 14.68 24 14 C23.34 13.773125 22.68 13.54625 22 13.3125 C19.45572112 12.19937799 17.4765012 11.0305156 15.1875 9.5 C7.11586941 4.4084334 -1.69662886 4.49652824 -11 4 C-11 3.67 -11 3.34 -11 3 C-6.38 2.67 -1.76 2.34 3 2 C2.01 1.34 1.02 0.68 0 0 Z " fill="#A9ABAA" transform="translate(261,147)"/>
<path d="M0 0 C0.66 0 1.32 0 2 0 C3.5078125 1.8984375 3.5078125 1.8984375 5.125 4.375 C5.66382813 5.18710937 6.20265625 5.99921875 6.7578125 6.8359375 C8 9 8 9 8 11 C8.99 11.33 9.98 11.66 11 12 C12.35827971 13.64639965 13.69254251 15.31295807 15 17 C15.66 17.33 16.32 17.66 17 18 C17 18.66 17 19.32 17 20 C17.66 20 18.32 20 19 20 C19 20.66 19 21.32 19 22 C19.66 22.226875 20.32 22.45375 21 22.6875 C23.54427888 23.80062201 25.5234988 24.9694844 27.8125 26.5 C31.79120196 29.06910469 35.37002978 30.09054156 40 31 C39.34 32.32 38.68 33.64 38 35 C39.98 35 41.96 35 44 35 C44 35.33 44 35.66 44 36 C35.56738139 37.1805666 29.14689941 32.93480979 22 29 C22 28.34 22 27.68 22 27 C21.2575 26.7525 20.515 26.505 19.75 26.25 C16.76976913 24.89534961 15.10080748 23.4898459 13 21 C13 20.34 13 19.68 13 19 C12.34 19 11.68 19 11 19 C11 18.34 11 17.68 11 17 C10.34 17 9.68 17 9 17 C5 11.70588235 5 11.70588235 5 8 C4.34 8 3.68 8 3 8 C0.95830515 5.09451118 0 3.59857954 0 0 Z " fill="#C1C3C2" transform="translate(196,317)"/>
<path d="M0 0 C0.99 0.33 1.98 0.66 3 1 C2.67 1.598125 2.34 2.19625 2 2.8125 C0.79212012 5.05386471 0.79212012 5.05386471 1 8 C0.34 8 -0.32 8 -1 8 C-1 8.66 -1 9.32 -1 10 C-1.66 10 -2.32 10 -3 10 C-3 10.66 -3 11.32 -3 12 C-4.8984375 13.7265625 -4.8984375 13.7265625 -7.375 15.625 C-8.59316406 16.57246094 -8.59316406 16.57246094 -9.8359375 17.5390625 C-12 19 -12 19 -14 19 C-14 19.66 -14 20.32 -14 21 C-15.32 21.33 -16.64 21.66 -18 22 C-16.95990389 15.75942337 -15.26220101 12.90466493 -10.1875 9.0625 C-6.51854178 6.22184494 -3.17044293 3.38180579 0 0 Z " fill="#BFC1C0" transform="translate(300,317)"/>
<path d="M0 0 C0.33 0.66 0.66 1.32 1 2 C1.66 2 2.32 2 3 2 C6 6.38461538 6 6.38461538 6 9 C6.66 9 7.32 9 8 9 C9.2890625 10.75 9.2890625 10.75 10.625 13 C11.07101562 13.7425 11.51703125 14.485 11.9765625 15.25 C12.48316406 16.11625 12.48316406 16.11625 13 17 C12 18 12 18 10.23413086 18.11352539 C9.48526611 18.10828857 8.73640137 18.10305176 7.96484375 18.09765625 C7.15595703 18.09443359 6.34707031 18.09121094 5.51367188 18.08789062 C4.66353516 18.07951172 3.81339844 18.07113281 2.9375 18.0625 C2.08349609 18.05798828 1.22949219 18.05347656 0.34960938 18.04882812 C-1.76695663 18.03700373 -3.88348685 18.01906769 -6 18 C-6.33 17.01 -6.66 16.02 -7 15 C-7.66 15 -8.32 15 -9 15 C-10.5078125 13.1015625 -10.5078125 13.1015625 -12.125 10.625 C-12.66382813 9.81289063 -13.20265625 9.00078125 -13.7578125 8.1640625 C-15 6 -15 6 -15 4 C-15.66 4 -16.32 4 -17 4 C-17.33 3.01 -17.66 2.02 -18 1 C-16.68 1.33 -15.36 1.66 -14 2 C-14 2.99 -14 3.98 -14 5 C-13.01 5 -12.02 5 -11 5 C-10.731875 5.598125 -10.46375 6.19625 -10.1875 6.8125 C-9.12897949 9.04254963 -9.12897949 9.04254963 -7.375 10.5 C-6 12 -6 12 -6 16 C-1.05 16 3.9 16 9 16 C9 15.01 9 14.02 9 13 C8.34 13 7.68 13 7 13 C5.61767557 11.37373596 4.28062485 9.7074998 3 8 C2.01 8.495 2.01 8.495 1 9 C0.34 8.67 -0.32 8.34 -1 8 C-0.67 5.36 -0.34 2.72 0 0 Z " fill="#4FA7B8" transform="translate(300,263)"/>
<path d="M0 0 C4.34139387 -0.12980912 7.6520104 0.078709 11.6015625 2.1171875 C11.2715625 2.7771875 10.9415625 3.4371875 10.6015625 4.1171875 C5.9815625 4.1171875 1.3615625 4.1171875 -3.3984375 4.1171875 C-3.3984375 4.7771875 -3.3984375 5.4371875 -3.3984375 6.1171875 C-9.0084375 7.4371875 -14.6184375 8.7571875 -20.3984375 10.1171875 C-18.079312 5.47893649 -15.97386903 3.43540614 -11.3984375 1.1171875 C-7.62018382 0.16746253 -3.87024122 0.18909973 0 0 Z " fill="#BFC1BF" transform="translate(253.3984375,145.8828125)"/>
<path d="M0 0 C10.56 0 21.12 0 32 0 C32 11.22 32 22.44 32 34 C31.34 34 30.68 34 30 34 C30 23.44 30 12.88 30 2 C20.21220644 1.4202491 20.21220644 1.4202491 16 3 C16 2.34 16 1.68 16 1 C8.08 1.495 8.08 1.495 0 2 C0 1.34 0 0.68 0 0 Z " fill="#5EAEC1" transform="translate(237,219)"/>
<path d="M0 0 C-1.17255709 3.33727786 -2.18868404 5.77437487 -5 8 C-5.66 8 -6.32 8 -7 8 C-7 8.66 -7 9.32 -7 10 C-7.66 10 -8.32 10 -9 10 C-9 10.66 -9 11.32 -9 12 C-10.134375 12.268125 -11.26875 12.53625 -12.4375 12.8125 C-13.613125 13.204375 -14.78875 13.59625 -16 14 C-16.33 14.99 -16.66 15.98 -17 17 C-17.99 16.67 -18.98 16.34 -20 16 C-19.01 14.02 -18.02 12.04 -17 10 C-16.34 10 -15.68 10 -15 10 C-15 9.34 -15 8.68 -15 8 C-14.34 8 -13.68 8 -13 8 C-13 7.34 -13 6.68 -13 6 C-12.34 6 -11.68 6 -11 6 C-11 5.34 -11 4.68 -11 4 C-9.35 3.34 -7.7 2.68 -6 2 C-6 1.34 -6 0.68 -6 0 C-3 -1 -3 -1 0 0 Z " fill="#BBBCBC" transform="translate(207,171)"/>
<path d="M0 0 C2.04119788 1.61594832 4.04072937 3.2856382 6 5 C6 5.66 6 6.32 6 7 C6.66 7 7.32 7 8 7 C12.72073714 13.13082745 17.01100563 19.85240477 20 27 C19.67 27.99 19.34 28.98 19 30 C15 24.25 15 24.25 15 22 C14.34 22 13.68 22 13 22 C10 17.61538462 10 17.61538462 10 15 C9.34 15 8.68 15 8 15 C6.64721885 13.01310269 5.31431695 11.01254782 4 9 C3.34 8.67 2.68 8.34 2 8 C2 7.34 2 6.68 2 6 C1.34 5.67 0.68 5.34 0 5 C0 3.35 0 1.7 0 0 Z " fill="#B2B3B2" transform="translate(285,157)"/>
<path d="M0 0 C0.66 0.33 1.32 0.66 2 1 C1.67 1.99 1.34 2.98 1 4 C1.99 4.33 2.98 4.66 4 5 C3.21654285 6.17219543 2.42297164 7.33763668 1.625 8.5 C1.18414062 9.1496875 0.74328125 9.799375 0.2890625 10.46875 C-0.13632812 10.9740625 -0.56171875 11.479375 -1 12 C-1.66 12 -2.32 12 -3 12 C-3 12.66 -3 13.32 -3 14 C-4.62553283 15.70680947 -6.29115995 17.37660195 -8 19 C-8.99 18.67 -9.98 18.34 -11 18 C-10.505 17.1028125 -10.505 17.1028125 -10 16.1875 C-8.79212012 13.94613529 -8.79212012 13.94613529 -9 11 C-6.625 7.8125 -6.625 7.8125 -4 5 C-3.34 5 -2.68 5 -2 5 C-1.34 3.35 -0.68 1.7 0 0 Z " fill="#B7B9B8" transform="translate(311,304)"/>
<path d="M0 0 C7.92 0 15.84 0 24 0 C24 0.99 24 1.98 24 3 C21.69 3 19.38 3 17 3 C17 3.66 17 4.32 17 5 C13.7 5 10.4 5 7 5 C7 4.34 7 3.68 7 3 C5.02 3 3.04 3 1 3 C0.67 2.01 0.34 1.02 0 0 Z " fill="#C9CBCA" transform="translate(233,349)"/>
<path d="M0 0 C0.66 0 1.32 0 2 0 C3.5078125 1.8984375 3.5078125 1.8984375 5.125 4.375 C5.66382813 5.18710937 6.20265625 5.99921875 6.7578125 6.8359375 C8 9 8 9 8 11 C8.99 11.33 9.98 11.66 11 12 C12.35827971 13.64639965 13.69254251 15.31295807 15 17 C15.66 17.33 16.32 17.66 17 18 C17 18.66 17 19.32 17 20 C17.66 20 18.32 20 19 20 C18.67 21.65 18.34 23.3 18 25 C16.2925002 23.71937515 14.62626404 22.38232443 13 21 C13 20.34 13 19.68 13 19 C12.34 19 11.68 19 11 19 C11 18.34 11 17.68 11 17 C10.34 17 9.68 17 9 17 C5 11.70588235 5 11.70588235 5 8 C4.34 8 3.68 8 3 8 C0.95830515 5.09451118 0 3.59857954 0 0 Z " fill="#848685" transform="translate(196,317)"/>
<path d="M0 0 C0.66 0.33 1.32 0.66 2 1 C1.5020163 4.73487777 1.12508244 6.81237635 -1 10 C-1.66 10 -2.32 10 -3 10 C-3.2475 10.70511719 -3.495 11.41023437 -3.75 12.13671875 C-5.16103659 15.36887443 -6.9250726 17.96328902 -9 20.8125 C-9.70125 21.78832031 -10.4025 22.76414063 -11.125 23.76953125 C-11.74375 24.50558594 -12.3625 25.24164063 -13 26 C-13.66 26 -14.32 26 -15 26 C-13.58707905 21.1725201 -11.57025846 17.2837641 -9 13 C-8.34 13 -7.68 13 -7 13 C-6.34 11.02 -5.68 9.04 -5 7 C-4.34 7 -3.68 7 -3 7 C-2.690625 6.21625 -2.38125 5.4325 -2.0625 4.625 C-1 2 -1 2 0 0 Z " fill="#999A99" transform="translate(156,222)"/>
<path d="M0 0 C0.66 0.33 1.32 0.66 2 1 C-1.83267698 8.76476057 -5.68691463 16.48688356 -10 24 C-10.66 24 -11.32 24 -12 24 C-12.33 24.99 -12.66 25.98 -13 27 C-14.25 25.4375 -14.25 25.4375 -15 23 C-13.93237266 20.42998985 -12.53455057 18.3469597 -11 16 C-10.34 16 -9.68 16 -9 16 C-8.7525 15.113125 -8.505 14.22625 -8.25 13.3125 C-6.94270316 9.84816338 -5.37466761 7.80642536 -3 5 C-1.9731657 3.3497306 -0.96432076 1.68756133 0 0 Z " fill="#A8A9A9" transform="translate(354,245)"/>
<path d="M0 0 C1.29566232 0.54539632 2.57076332 1.14085041 3.828125 1.76953125 C3.498125 2.75953125 3.168125 3.74953125 2.828125 4.76953125 C0.765625 5.45703125 0.765625 5.45703125 -1.171875 5.76953125 C-1.171875 6.42953125 -1.171875 7.08953125 -1.171875 7.76953125 C-2.79813904 9.15185568 -4.4643752 10.4889064 -6.171875 11.76953125 C-6.831875 11.43953125 -7.491875 11.10953125 -8.171875 10.76953125 C-8.171875 10.10953125 -8.171875 9.44953125 -8.171875 8.76953125 C-9.161875 8.76953125 -10.151875 8.76953125 -11.171875 8.76953125 C-11.171875 8.10953125 -11.171875 7.44953125 -11.171875 6.76953125 C-9.34375 5.0078125 -9.34375 5.0078125 -6.921875 3.08203125 C-6.13296875 2.43878906 -5.3440625 1.79554688 -4.53125 1.1328125 C-2.171875 -0.23046875 -2.171875 -0.23046875 0 0 Z " fill="#BFC2C0" transform="translate(214.171875,162.23046875)"/>
<path d="M0 0 C0.33 0.66 0.66 1.32 1 2 C0.43410156 2.48210937 -0.13179687 2.96421875 -0.71484375 3.4609375 C-1.44832031 4.09257812 -2.18179688 4.72421875 -2.9375 5.375 C-3.66839844 6.00148437 -4.39929688 6.62796875 -5.15234375 7.2734375 C-7.08380906 8.87747714 -7.08380906 8.87747714 -8 11 C-8.66 11 -9.32 11 -10 11 C-10 11.66 -10 12.32 -10 13 C-12 12 -12 12 -13 10 C-13.99 10 -14.98 10 -16 10 C-13.36 7.36 -10.72 4.72 -8 2 C-7.01 2.99 -6.02 3.98 -5 5 C-4.67 3.68 -4.34 2.36 -4 1 C-2.68 0.67 -1.36 0.34 0 0 Z " fill="#B2B4B3" transform="translate(195,183)"/>
<path d="M0 0 C0.66 0.33 1.32 0.66 2 1 C1.01 2.98 0.02 4.96 -1 7 C-0.34 7.33 0.32 7.66 1 8 C-2.63 9.98 -6.26 11.96 -10 14 C-9.34 12.35 -8.68 10.7 -8 9 C-8.66 8.34 -9.32 7.68 -10 7 C-6.7 4.69 -3.4 2.38 0 0 Z " fill="#B3B5B5" transform="translate(283,332)"/>
<path d="M0 0 C0.71484375 1.640625 0.71484375 1.640625 1 4 C-0.43359375 6.796875 -0.43359375 6.796875 -2.4375 9.75 C-3.42556641 11.22726562 -3.42556641 11.22726562 -4.43359375 12.734375 C-4.95050781 13.48203125 -5.46742188 14.2296875 -6 15 C-6.33 14.34 -6.66 13.68 -7 13 C-7.99 12.67 -8.98 12.34 -10 12 C-8.90630138 10.18116422 -7.79968608 8.37009022 -6.6875 6.5625 C-6.07261719 5.55316406 -5.45773437 4.54382813 -4.82421875 3.50390625 C-3 1 -3 1 0 0 Z " fill="#BBBDBC" transform="translate(340,269)"/>
<path d="M0 0 C-0.5260925 3.78786597 -1.38103911 6.17152224 -4 9 C-4.66 9 -5.32 9 -6 9 C-6 9.66 -6 10.32 -6 11 C-7.32 11 -8.64 11 -10 11 C-9.67 9.02 -9.34 7.04 -9 5 C-8.34 5 -7.68 5 -7 5 C-6.67 4.01 -6.34 3.02 -6 2 C-3.85412616 0.684787 -2.52986895 0 0 0 Z " fill="#CBCDCC" transform="translate(322,297)"/>
<path d="M0 0 C6.27 0 12.54 0 19 0 C17.43888122 3.12223757 15.93312992 6.10030512 14 9 C13.34 9 12.68 9 12 9 C11.71125 9.78375 11.4225 10.5675 11.125 11.375 C10 14 10 14 8 16 C8 14.68 8 13.36 8 12 C8.66 12 9.32 12 10 12 C10 10.35 10 8.7 10 7 C10.99 7 11.98 7 13 7 C13.33 5.68 13.66 4.36 14 3 C14.66 3 15.32 3 16 3 C16 2.34 16 1.68 16 1 C10.72 1 5.44 1 0 1 C0 0.67 0 0.34 0 0 Z " fill="#4393A3" transform="translate(294,219)"/>
<path d="M0 0 C0.99 0.33 1.98 0.66 3 1 C3.6875 3.0625 3.6875 3.0625 4 5 C4.66 5 5.32 5 6 5 C6.99 6.98 7.98 8.96 9 11 C8.34 11 7.68 11 7 11 C7 10.34 7 9.68 7 9 C5.10820797 8.3185177 5.10820797 8.3185177 3 8 C2.34 8.66 1.68 9.32 1 10 C0.01 10.495 0.01 10.495 -1 11 C-1.33 9.68 -1.66 8.36 -2 7 C-1.34 7 -0.68 7 0 7 C0 6.01 0 5.02 0 4 C-0.99 4.33 -1.98 4.66 -3 5 C-1.125 1.125 -1.125 1.125 0 0 Z " fill="#4FD1F4" transform="translate(291,252)"/>
<path d="M0 0 C-0.825 0.598125 -1.65 1.19625 -2.5 1.8125 C-3.325 2.534375 -4.15 3.25625 -5 4 C-5 4.99 -5 5.98 -5 7 C-8.465 8.485 -8.465 8.485 -12 10 C-12.66 8.02 -13.32 6.04 -14 4 C-12.23494565 3.13395466 -10.46271926 2.28251358 -8.6875 1.4375 C-7.70136719 0.96183594 -6.71523437 0.48617187 -5.69921875 -0.00390625 C-3 -1 -3 -1 0 0 Z " fill="#B9BBBA" transform="translate(239,150)"/>
<path d="M0 0 C0 1.65 0 3.3 0 5 C-5.00932754 8.00559652 -8.32723489 8.29341888 -14 8 C-14 7.67 -14 7.34 -14 7 C-10.535 6.505 -10.535 6.505 -7 6 C-7 5.67 -7 5.34 -7 5 C-9.97 4.505 -9.97 4.505 -13 4 C-8.84541088 1.76291355 -4.76123067 0 0 0 Z " fill="#B2B4B3" transform="translate(264,345)"/>
<path d="M0 0 C-0.33 1.65 -0.66 3.3 -1 5 C-1.66 5 -2.32 5 -3 5 C-3.28875 5.639375 -3.5775 6.27875 -3.875 6.9375 C-5 9 -5 9 -7 10 C-7.33 9.34 -7.66 8.68 -8 8 C-8.99 7.67 -9.98 7.34 -11 7 C-3.96875 -1.984375 -3.96875 -1.984375 0 0 Z " fill="#BDC2BF" transform="translate(184,193)"/>
<path d="M0 0 C0 3.69418201 -1.28179295 5.77836178 -3 9 C-3.66 9 -4.32 9 -5 9 C-5 9.66 -5 10.32 -5 11 C-6.32 11.33 -7.64 11.66 -9 12 C-8.44546753 8.67280518 -7.95004305 5.78577578 -6 3 C-2.875 1.25 -2.875 1.25 0 0 Z " fill="#DCDEDD" transform="translate(291,327)"/>
<path d="M0 0 C1.32 0.33 2.64 0.66 4 1 C4 1.99 4 2.98 4 4 C4.99 4 5.98 4 7 4 C7.268125 4.598125 7.53625 5.19625 7.8125 5.8125 C8.86180044 8.04292693 8.86180044 8.04292693 10.625 9.4375 C12 11 12 11 12.1875 13.6875 C12.125625 14.450625 12.06375 15.21375 12 16 C11.67 15.34 11.34 14.68 11 14 C10.34 14 9.68 14 9 14 C7.4921875 12.1015625 7.4921875 12.1015625 5.875 9.625 C5.33617187 8.81289063 4.79734375 8.00078125 4.2421875 7.1640625 C3 5 3 5 3 3 C2.34 3 1.68 3 1 3 C0.67 2.01 0.34 1.02 0 0 Z " fill="#3B8CA1" transform="translate(282,264)"/>
<path d="M0 0 C1.32 0.33 2.64 0.66 4 1 C1.03 5.29 -1.94 9.58 -5 14 C-5.33 13.01 -5.66 12.02 -6 11 C-6.99 10.67 -7.98 10.34 -9 10 C-8.34 9.67 -7.68 9.34 -7 9 C-6.01 9.33 -5.02 9.66 -4 10 C-4 8.02 -4 6.04 -4 4 C-3.34 4 -2.68 4 -2 4 C-1.34 2.68 -0.68 1.36 0 0 Z " fill="#46A6BD" transform="translate(276,265)"/>
<path d="M0 0 C3.64083526 4.18021827 6.88869424 8.85188457 9 14 C8.67 14.99 8.34 15.98 8 17 C4 11.25 4 11.25 4 9 C3.34 9 2.68 9 2 9 C-1.11450382 4.84732824 -1.11450382 4.84732824 -0.6875 1.6875 C-0.460625 1.130625 -0.23375 0.57375 0 0 Z " fill="#727473" transform="translate(296,170)"/>
<path d="M0 0 C0.33 0.66 0.66 1.32 1 2 C1.66 2 2.32 2 3 2 C6 6.38461538 6 6.38461538 6 9 C6.66 9 7.32 9 8 9 C8.66 10.32 9.32 11.64 10 13 C9.01 13 8.02 13 7 13 C4.8125 10.5 4.8125 10.5 3 8 C2.01 8.495 2.01 8.495 1 9 C0.34 8.67 -0.32 8.34 -1 8 C-0.67 5.36 -0.34 2.72 0 0 Z " fill="#47ABC1" transform="translate(300,263)"/>
<path d="M0 0 C0.99 0.99 1.98 1.98 3 3 C1.79618552 5.49361571 0.54571278 7.68143083 -1 10 C-1.66 10 -2.32 10 -3 10 C-3.33 10.66 -3.66 11.32 -4 12 C-5.39195915 7.82412255 -3.82323219 5.86525224 -2 2 C-1.34 2 -0.68 2 0 2 C0 1.34 0 0.68 0 0 Z " fill="#A4A7A5" transform="translate(162,214)"/>
<path d="M0 0 C0.66 0.33 1.32 0.66 2 1 C-0.31 5.62 -2.62 10.24 -5 15 C-5.99 14.67 -6.98 14.34 -8 14 C-6.6744419 10.37723685 -5.05653045 7.36494652 -2.875 4.1875 C-2.33617187 3.39730469 -1.79734375 2.60710937 -1.2421875 1.79296875 C-0.83226562 1.20128906 -0.42234375 0.60960937 0 0 Z " fill="#757675" transform="translate(354,245)"/>
<path d="M0 0 C4 2 4 2 6 5 C6 5.99 6 6.98 6 8 C4.02 8.33 2.04 8.66 0 9 C0 6.03 0 3.06 0 0 Z " fill="#53CEEE" transform="translate(278,256)"/>
<path d="M0 0 C2.0234375 -0.36328125 2.0234375 -0.36328125 4.375 -0.3125 C5.14585937 -0.30863281 5.91671875 -0.30476562 6.7109375 -0.30078125 C9.18002469 0.02365512 10.85179272 0.76894971 13 2 C12 3 12 3 8.83984375 3.09765625 C6.90818359 3.08025391 6.90818359 3.08025391 4.9375 3.0625 C3.64714844 3.05347656 2.35679687 3.04445312 1.02734375 3.03515625 C0.02832031 3.02355469 -0.97070312 3.01195312 -2 3 C-1.34 2.01 -0.68 1.02 0 0 Z " fill="#F9FBFA" transform="translate(252,147)"/>
<path d="M0 0 C2.31 0.33 4.62 0.66 7 1 C6.34 2.32 5.68 3.64 5 5 C6.98 5 8.96 5 11 5 C11 5.33 11 5.66 11 6 C5.01006953 6.3152595 1.36439644 5.68219822 -4 3 C-0.25 1.875 -0.25 1.875 2 3 C2 2.34 2 1.68 2 1 C1.34 0.67 0.68 0.34 0 0 Z " fill="#A1A3A2" transform="translate(229,347)"/>
<path d="M0 0 C0.99 0.33 1.98 0.66 3 1 C2.67 1.598125 2.34 2.19625 2 2.8125 C0.79212012 5.05386471 0.79212012 5.05386471 1 8 C0.01 8.33 -0.98 8.66 -2 9 C-2.99 7.68 -3.98 6.36 -5 5 C-3.35 3.35 -1.7 1.7 0 0 Z " fill="#D1D3D2" transform="translate(300,317)"/>
<path d="M0 0 C0.99 0.33 1.98 0.66 3 1 C2.34 2.65 1.68 4.3 1 6 C-0.32 5.67 -1.64 5.34 -3 5 C-3 5.99 -3 6.98 -3 8 C-3.99 8 -4.98 8 -6 8 C-5.34 6.68 -4.68 5.36 -4 4 C-3.34 4 -2.68 4 -2 4 C-1.34 2.68 -0.68 1.36 0 0 Z " fill="#ECEEED" transform="translate(204,170)"/>
<path d="M0 0 C5.75 1.625 5.75 1.625 8 5 C7.67 5.99 7.34 6.98 7 8 C1.21538462 4.55384615 1.21538462 4.55384615 0.125 1.75 C0.08375 1.1725 0.0425 0.595 0 0 Z " fill="#C9CAC9" transform="translate(278,154)"/>
<path d="M0 0 C0 0.33 0 0.66 0 1 C-3.02734375 1.24414062 -3.02734375 1.24414062 -6.0546875 1.48828125 C-8.39519216 1.87393036 -8.39519216 1.87393036 -10 5 C-11.65 4.67 -13.3 4.34 -15 4 C-15 3.01 -15 2.02 -15 1 C-9.94997778 -0.03590199 -5.12583611 -0.10251672 0 0 Z " fill="#D0D2D1" transform="translate(260,146)"/>
<path d="M0 0 C2.97 0.495 2.97 0.495 6 1 C6 1.66 6 2.32 6 3 C6.66 3 7.32 3 8 3 C7.67 4.65 7.34 6.3 7 8 C5.2925002 6.71937515 3.62626404 5.38232443 2 4 C2 3.34 2 2.68 2 2 C1.34 2 0.68 2 0 2 C0 1.34 0 0.68 0 0 Z " fill="#949695" transform="translate(207,334)"/>
<path d="M0 0 C-0.33 1.65 -0.66 3.3 -1 5 C-2.98 5.66 -4.96 6.32 -7 7 C-6.22006468 2.47637516 -4.81844319 0 0 0 Z " fill="#C9CACA" transform="translate(333,282)"/>
<path d="M0 0 C1.18918919 4.75675676 1.18918919 4.75675676 0 8 C-0.66 8.66 -1.32 9.32 -2 10 C-2 9.34 -2 8.68 -2 8 C-2.99 7.67 -3.98 7.34 -5 7 C-3.35 4.69 -1.7 2.38 0 0 Z " fill="#A7AAA8" transform="translate(335,274)"/>
<path d="M0 0 C1.32 0 2.64 0 4 0 C3.67 0.99 3.34 1.98 3 3 C2.34 3 1.68 3 1 3 C1 3.66 1 4.32 1 5 C-0.65 5.33 -2.3 5.66 -4 6 C-4 5.01 -4 4.02 -4 3 C-3.01 3 -2.02 3 -1 3 C-0.67 2.01 -0.34 1.02 0 0 Z " fill="#D4D7D5" transform="translate(212,165)"/>
<path d="M0 0 C1.5 1.375 1.5 1.375 3 3 C3 3.66 3 4.32 3 5 C3.66 5 4.32 5 5 5 C5.99 6.98 6.98 8.96 8 11 C7.34 11 6.68 11 6 11 C6 10.34 6 9.68 6 9 C3.525 8.01 3.525 8.01 1 7 C0.67 4.69 0.34 2.38 0 0 Z " fill="#449DB1" transform="translate(292,252)"/>
<path d="M0 0 C0.66 0 1.32 0 2 0 C1.49396008 2.16874252 1.00016187 3.99967627 0 6 C-0.66 6 -1.32 6 -2 6 C-2.33 6.66 -2.66 7.32 -3 8 C-3 7.34 -3 6.68 -3 6 C-4.65 6.66 -6.3 7.32 -8 8 C-7.01 6.35 -6.02 4.7 -5 3 C-4.67 3.66 -4.34 4.32 -4 5 C-3.01 5 -2.02 5 -1 5 C-0.67 3.35 -0.34 1.7 0 0 Z " fill="#ACAEAD" transform="translate(325,291)"/>
<path d="M0 0 C0.33 1.32 0.66 2.64 1 4 C0.01 4.33 -0.98 4.66 -2 5 C-3.21869929 7.50447516 -3.21869929 7.50447516 -4 10 C-4.66 10 -5.32 10 -6 10 C-4.125 5.25 -4.125 5.25 -3 3 C-2.34 3 -1.68 3 -1 3 C-0.67 2.01 -0.34 1.02 0 0 Z " fill="#3B8FA4" transform="translate(275,245)"/>
<path d="M0 0 C0.99 0.33 1.98 0.66 3 1 C2.01 2.485 2.01 2.485 1 4 C1.66 4.66 2.32 5.32 3 6 C1.02 6.99 1.02 6.99 -1 8 C-1 7.01 -1 6.02 -1 5 C-1.99 5 -2.98 5 -4 5 C-4 4.34 -4 3.68 -4 3 C-2.1875 1.3125 -2.1875 1.3125 0 0 Z " fill="#969797" transform="translate(207,166)"/>
<path d="M0 0 C0.66 0.99 1.32 1.98 2 3 C0.7260411 5.03833424 -0.61061923 7.03852126 -2 9 C-2.66 9 -3.32 9 -4 9 C-2.94124926 5.59687262 -1.99097846 2.98646769 0 0 Z " fill="#646666" transform="translate(145,239)"/>
<path d="M0 0 C0.66 1.32 1.32 2.64 2 4 C0.625 6 0.625 6 -1 8 C-1.66 8 -2.32 8 -3 8 C-2.67 6.02 -2.34 4.04 -2 2 C-1.34 2 -0.68 2 0 2 C0 1.34 0 0.68 0 0 Z " fill="#8E8F8F" transform="translate(149,233)"/>
<path d="M0 0 C3.875 4.75 3.875 4.75 5 7 C4.34 7 3.68 7 3 7 C2.67 7.66 2.34 8.32 2 9 C-1.07692308 4.56923077 -1.07692308 4.56923077 -0.6875 1.6875 C-0.460625 1.130625 -0.23375 0.57375 0 0 Z " fill="#858786" transform="translate(296,170)"/>
<path d="M0 0 C1.98 1.65 3.96 3.3 6 5 C4 7 4 7 2 8 C2 7.34 2 6.68 2 6 C1.34 5.67 0.68 5.34 0 5 C0 3.35 0 1.7 0 0 Z " fill="#7F8080" transform="translate(285,157)"/>
<path d="M0 0 C0.99 0.33 1.98 0.66 3 1 C3.33 3.31 3.66 5.62 4 8 C3.67 7.34 3.34 6.68 3 6 C2.34 6 1.68 6 1 6 C0.67 4.02 0.34 2.04 0 0 Z " fill="#46A6B8" transform="translate(290,272)"/>
<path d="M0 0 C1.98 0 3.96 0 6 0 C6 0.99 6 1.98 6 3 C4.35 3 2.7 3 1 3 C0.67 2.01 0.34 1.02 0 0 Z " fill="#FAFCFB" transform="translate(251,349)"/>
<path d="M0 0 C0.99 0 1.98 0 3 0 C2.67 1.65 2.34 3.3 2 5 C0.68 5 -0.64 5 -2 5 C-1.34 3.35 -0.68 1.7 0 0 Z " fill="#BEBFBE" transform="translate(302,317)"/>
<path d="M0 0 C0.33 0.66 0.66 1.32 1 2 C-0.25 4.5625 -0.25 4.5625 -2 7 C-2.99 7.33 -3.98 7.66 -5 8 C-3.8141763 4.62496331 -2.72426311 2.35277269 0 0 Z " fill="#337C92" transform="translate(281,237)"/>
<path d="M0 0 C2.475 0.495 2.475 0.495 5 1 C3.25 5.875 3.25 5.875 1 7 C0.67 4.69 0.34 2.38 0 0 Z " fill="#47B0C9" transform="translate(296,234)"/>
<path d="M0 0 C2 2 2 2 2 6 C1.34 6 0.68 6 0 6 C-0.33 6.66 -0.66 7.32 -1 8 C-2.2077558 4.37673261 -1.54311128 3.35853631 0 0 Z " fill="#B5B6B5" transform="translate(159,218)"/>
<path d="M0 0 C0.99 0 1.98 0 3 0 C2.67 1.65 2.34 3.3 2 5 C1.01 5 0.02 5 -1 5 C-0.67 3.35 -0.34 1.7 0 0 Z " fill="#D1D3D2" transform="translate(322,291)"/>
<path d="M0 0 C0.99 0 1.98 0 3 0 C2.67 1.65 2.34 3.3 2 5 C1.01 4.67 0.02 4.34 -1 4 C-0.67 2.68 -0.34 1.36 0 0 Z " fill="#C9CBC9" transform="translate(164,212)"/>
</svg>
